<svg width="40" height="41" viewBox="0 0 40 41" fill="none" xmlns="http://www.w3.org/2000/svg">
<path d="M27.7674 1.80925C28.0398 1.34162 28.544 1.05444 29.0887 1.05665L32.2224 1.06939L35.3561 1.06938C35.9008 1.06938 36.4039 1.35861 36.6743 1.82733L38.23 4.52357L39.7969 7.21346C40.0693 7.68108 40.0681 8.25749 39.7937 8.724L38.2158 11.4075L36.649 14.0974C36.3766 14.565 35.8724 14.8522 35.3276 14.85L32.1939 14.8373L29.0603 14.8373C28.5155 14.8373 28.0125 14.548 27.742 14.0793L26.1863 11.3831L24.6195 8.69319C24.3471 8.22557 24.3483 7.64916 24.6226 7.18265L26.2005 4.49914L27.7674 1.80925Z" fill="#F58025"/>
<path d="M22.2055 7.8754C22.2834 7.79708 22.283 7.67044 22.2047 7.59256L20.9282 6.32343C20.8498 6.24555 20.7232 6.24591 20.6453 6.32424C20.5674 6.40257 20.5678 6.5292 20.6461 6.60708L21.7808 7.7352L20.6527 8.86981C20.5749 8.94814 20.5752 9.07477 20.6536 9.15265C20.7319 9.23054 20.8585 9.23017 20.9364 9.15184L22.2055 7.8754ZM17.9838 7.9461C18.0942 7.94578 18.1835 7.85598 18.1832 7.74552C18.1829 7.63507 18.0931 7.54578 17.9826 7.5461L17.9838 7.9461ZM20.7029 7.53829C20.5925 7.53861 20.5032 7.62841 20.5035 7.73887C20.5038 7.84932 20.5936 7.93861 20.7041 7.93829L20.7029 7.53829ZM16.6236 7.95L17.9838 7.9461L17.9826 7.5461L16.6225 7.55L16.6236 7.95ZM20.7041 7.93829L22.0642 7.93439L22.0631 7.53439L20.7029 7.53829L20.7041 7.93829ZM22.3473 8.01642C22.5031 7.85976 22.5023 7.6065 22.3457 7.45074L19.7927 4.91247C19.636 4.75671 19.3827 4.75743 19.227 4.91409C19.0712 5.07075 19.072 5.32401 19.2286 5.47977L21.498 7.73601L19.2418 10.0052C19.0861 10.1619 19.0868 10.4152 19.2435 10.5709C19.4002 10.7267 19.6534 10.726 19.8092 10.5693L22.3473 8.01642ZM17.9844 8.1461C18.2053 8.14546 18.3838 7.96586 18.3832 7.74495C18.3826 7.52404 18.2029 7.34547 17.982 7.3461L17.9844 8.1461ZM20.7023 7.33829C20.4814 7.33893 20.3029 7.51853 20.3035 7.73944C20.3041 7.96035 20.4838 8.13892 20.7047 8.13829L20.7023 7.33829ZM16.6242 8.15L17.9844 8.1461L17.982 7.3461L16.6219 7.35L16.6242 8.15ZM20.7047 8.13829L22.0648 8.13439L22.0625 7.33439L20.7023 7.33829L20.7047 8.13829Z" fill="#446191"/>
<path d="M0.249756 0.885499C0.249756 0.551709 0.523363 0.277344 0.865551 0.277344H14.7183C15.0605 0.277344 15.3341 0.551709 15.3341 0.885499V14.616C15.3341 14.9498 15.0605 15.2241 14.7183 15.2241H0.865551C0.523363 15.2241 0.249756 14.9498 0.249756 14.616V0.885499Z" stroke="#446191" stroke-width="0.5"/>
<path d="M27.1532 32.3035C27.1532 36.4288 23.7785 39.7769 19.611 39.7769C15.4435 39.7769 12.0688 36.4288 12.0688 32.3035C12.0688 28.1781 15.4435 24.8301 19.611 24.8301C23.7785 24.8301 27.1532 28.1781 27.1532 32.3035Z" stroke="#446191" stroke-width="0.5"/>
<path d="M14.3517 24.3438C14.3324 24.4526 14.2286 24.5251 14.1198 24.5058L12.3475 24.1911C12.2388 24.1718 12.1663 24.068 12.1856 23.9593C12.2049 23.8505 12.3087 23.778 12.4175 23.7973L13.9928 24.077L14.2725 22.5016C14.2918 22.3928 14.3956 22.3203 14.5044 22.3396C14.6131 22.3589 14.6856 22.4628 14.6663 22.5715L14.3517 24.3438ZM10.2279 18.3374C10.2911 18.428 10.269 18.5526 10.1784 18.6159C10.0879 18.6791 9.96319 18.657 9.89994 18.5665L10.2279 18.3374ZM11.0688 20.2399C11.0055 20.1493 11.0276 20.0246 11.1182 19.9614C11.2088 19.8981 11.3334 19.9203 11.3967 20.0108L11.0688 20.2399ZM12.5655 21.6842C12.6288 21.7748 12.6066 21.8995 12.5161 21.9627C12.4255 22.026 12.3008 22.0038 12.2376 21.9133L12.5655 21.6842ZM13.4064 23.5867C13.3432 23.4961 13.3653 23.3714 13.4558 23.3082C13.5464 23.2449 13.6711 23.2671 13.7343 23.3576L13.4064 23.5867ZM9.64346 17.5007L10.2279 18.3374L9.89994 18.5665L9.31553 17.7298L9.64346 17.5007ZM11.3967 20.0108L12.5655 21.6842L12.2376 21.9133L11.0688 20.2399L11.3967 20.0108ZM13.7343 23.3576L14.3187 24.1943L13.9908 24.4234L13.4064 23.5867L13.7343 23.3576ZM14.5486 24.3788C14.51 24.5963 14.3024 24.7413 14.0849 24.7027L10.5403 24.0734C10.3228 24.0348 10.1778 23.8272 10.2164 23.6097C10.255 23.3921 10.4626 23.2471 10.6801 23.2857L13.8309 23.8451L14.3902 20.6943C14.4288 20.4768 14.6365 20.3318 14.854 20.3704C15.0715 20.409 15.2165 20.6167 15.1779 20.8342L14.5486 24.3788ZM10.3918 18.2229C10.5183 18.404 10.4741 18.6534 10.293 18.7799C10.1118 18.9064 9.86248 18.8621 9.73598 18.681L10.3918 18.2229ZM10.9048 20.3544C10.7783 20.1733 10.8226 19.9239 11.0037 19.7974C11.1848 19.6709 11.4342 19.7152 11.5607 19.8963L10.9048 20.3544ZM12.7295 21.5697C12.856 21.7508 12.8117 22.0002 12.6306 22.1267C12.4495 22.2532 12.2001 22.2089 12.0736 22.0278L12.7295 21.5697ZM13.2424 23.7012C13.1159 23.5201 13.1602 23.2707 13.3413 23.1442C13.5224 23.0177 13.7718 23.062 13.8983 23.2431L13.2424 23.7012ZM9.80742 17.3862L10.3918 18.2229L9.73598 18.681L9.15156 17.8443L9.80742 17.3862ZM11.5607 19.8963L12.7295 21.5697L12.0736 22.0278L10.9048 20.3544L11.5607 19.8963ZM13.8983 23.2431L14.4827 24.0798L13.8269 24.5379L13.2424 23.7012L13.8983 23.2431Z" fill="#446191"/>
<path d="M30.7169 17.503C30.7004 17.3938 30.5984 17.3186 30.4892 17.3351L28.7095 17.6043C28.6003 17.6208 28.5251 17.7227 28.5416 17.8319C28.5581 17.9412 28.6601 18.0163 28.7693 17.9998L30.3513 17.7605L30.5905 19.3426C30.6071 19.4518 30.709 19.5269 30.8182 19.5104C30.9274 19.4939 31.0026 19.392 30.986 19.2827L30.7169 17.503ZM26.362 23.5085C26.4275 23.4196 26.4086 23.2944 26.3197 23.2289C26.2308 23.1633 26.1056 23.1823 26.04 23.2712L26.362 23.5085ZM27.2738 21.5977C27.2082 21.6867 27.2272 21.8119 27.3161 21.8774C27.405 21.943 27.5302 21.924 27.5957 21.8351L27.2738 21.5977ZM28.8295 20.1617C28.895 20.0728 28.8761 19.9476 28.7872 19.882C28.6983 19.8165 28.5731 19.8354 28.5075 19.9243L28.8295 20.1617ZM29.7413 18.2509C29.6757 18.3398 29.6947 18.465 29.7836 18.5306C29.8725 18.5961 29.9977 18.5772 30.0632 18.4883L29.7413 18.2509ZM25.7451 24.3452L26.362 23.5085L26.04 23.2712L25.4231 24.1079L25.7451 24.3452ZM27.5957 21.8351L28.8295 20.1617L28.5075 19.9243L27.2738 21.5977L27.5957 21.8351ZM30.0632 18.4883L30.6801 17.6516L30.3582 17.4142L29.7413 18.2509L30.0632 18.4883ZM30.9146 17.4731C30.8816 17.2546 30.6778 17.1043 30.4593 17.1374L26.8998 17.6757C26.6814 17.7087 26.5311 17.9126 26.5641 18.131C26.5971 18.3494 26.801 18.4997 27.0194 18.4667L30.1834 17.9882L30.662 21.1522C30.695 21.3706 30.8988 21.5209 31.1173 21.4879C31.3357 21.4549 31.486 21.251 31.453 21.0326L30.9146 17.4731ZM26.5229 23.6272C26.654 23.4494 26.6162 23.199 26.4384 23.0679C26.2605 22.9368 26.0101 22.9747 25.879 23.1525L26.5229 23.6272ZM27.1128 21.4791C26.9817 21.6569 27.0196 21.9073 27.1974 22.0384C27.3752 22.1695 27.6256 22.1316 27.7567 21.9538L27.1128 21.4791ZM28.9905 20.2804C29.1216 20.1026 29.0837 19.8521 28.9059 19.7211C28.7281 19.59 28.4776 19.6278 28.3465 19.8056L28.9905 20.2804ZM29.5803 18.1322C29.4492 18.31 29.4871 18.5605 29.6649 18.6915C29.8427 18.8226 30.0931 18.7848 30.2242 18.607L29.5803 18.1322ZM25.9061 24.4639L26.5229 23.6272L25.879 23.1525L25.2621 23.9892L25.9061 24.4639ZM27.7567 21.9538L28.9905 20.2804L28.3465 19.8056L27.1128 21.4791L27.7567 21.9538ZM30.2242 18.607L30.8411 17.7702L30.1972 17.2955L29.5803 18.1322L30.2242 18.607Z" fill="#446191"/>
</svg>
