<svg width="48" height="49" viewBox="0 0 48 49" fill="none" xmlns="http://www.w3.org/2000/svg">
<path fill-rule="evenodd" clip-rule="evenodd" d="M42 6.28516V20.2852H28L33.9 14.3852C31.36 11.8652 27.86 10.2852 24 10.2852C16.28 10.2852 10 16.5652 10 24.2852C10 32.0052 16.28 38.2852 24 38.2852C31.72 38.2852 38 32.0052 38 24.2852H42C42 34.2252 33.94 42.2852 24 42.2852C14.06 42.2852 6 34.2252 6 24.2852C6 14.3452 14.06 6.28516 24 6.28516C28.98 6.28516 33.48 8.30516 36.72 11.5652L42 6.28516ZM22 26.2852V16.2852H25V24.5852L32.04 28.7652L30.5 31.3252L22 26.2852Z" fill="#06335E"/>
</svg>
