<svg width="48" height="55" viewBox="0 0 48 55" fill="none" xmlns="http://www.w3.org/2000/svg">
<path d="M16.7032 11.9602L16.7042 11.9602L20.0478 11.9602C20.5394 11.9602 20.9933 12.2235 21.2373 12.6502L22.8972 15.5527L22.8977 15.5536L24.5695 18.4492C24.8153 18.8749 24.8143 19.3997 24.5667 19.8244L22.8831 22.7132L22.8826 22.7141L21.2108 25.6097C20.965 26.0354 20.51 26.2969 20.0184 26.2949L16.6748 26.2812L16.6738 26.2812L13.3302 26.2812C12.8386 26.2812 12.3847 26.0179 12.1407 25.5911L10.4808 22.6887L10.4803 22.6878L8.80845 19.7921C8.56266 19.3664 8.56373 18.8417 8.81127 18.4169L10.4949 15.5282L10.4949 15.5282L10.4954 15.5273L12.1672 12.6317C12.413 12.2059 12.868 11.9445 13.3596 11.9465L16.7032 11.9602Z" stroke="#446191" stroke-width="0.5"/>
<path d="M30.2849 3.77075L30.286 3.77075L33.6296 3.77074C34.1211 3.77074 34.5751 4.03406 34.8191 4.46078L36.479 7.36325L36.4795 7.36414L38.1513 10.2598C38.3971 10.6855 38.396 11.2103 38.1485 11.635L36.4649 14.5237L36.4643 14.5246L34.7926 17.4203C34.5468 17.846 34.0918 18.1074 33.6002 18.1054L30.2566 18.0917L30.2556 18.0917L26.912 18.0917C26.4204 18.0917 25.9665 17.8284 25.7225 17.4017L24.0626 14.4992L24.062 14.4983L22.3902 11.6027C22.1444 11.177 22.1455 10.6522 22.3931 10.2275L24.0767 7.33873L24.0767 7.33873L24.0772 7.33784L25.749 4.4422C25.9948 4.01648 26.4498 3.75503 26.9414 3.75704L30.2849 3.77075Z" stroke="#446191" stroke-width="0.5"/>
<path d="M25.6746 20.3797C25.9652 19.8763 26.5032 19.5672 27.0845 19.5695L30.4281 19.5832L33.7717 19.5832C34.3529 19.5832 34.8896 19.8946 35.1782 20.3992L36.8381 23.3016L38.5099 26.1973C38.8006 26.7007 38.7993 27.3212 38.5066 27.8234L36.8229 30.7121L35.1512 33.6078C34.8605 34.1111 34.3225 34.4203 33.7413 34.4179L30.3977 34.4042L27.0541 34.4042C26.4728 34.4042 25.9361 34.0929 25.6475 33.5883L23.9876 30.6858L22.3158 27.7902C22.0252 27.2868 22.0265 26.6663 22.3191 26.1641L24.0028 23.2753L25.6746 20.3797Z" fill="#F58025"/>
<path d="M16.6364 27.7747L16.6375 27.7747L19.9811 27.7746C20.4726 27.7746 20.9266 28.038 21.1706 28.4647L22.8305 31.3672L22.831 31.368L24.5028 34.2637C24.7486 34.6894 24.7476 35.2142 24.5 35.6389L22.8164 38.5276L22.8159 38.5285L21.1441 41.4242C20.8983 41.8499 20.4433 42.1113 19.9517 42.1093L16.6081 42.0956L16.6071 42.0956L13.2635 42.0956C12.7719 42.0956 12.318 41.8323 12.074 41.4056L10.4141 38.5031L10.4135 38.5022L8.74174 35.6066C8.49595 35.1809 8.49702 34.6561 8.74455 34.2314L10.4282 31.3426L10.4282 31.3426L10.4287 31.3417L12.1005 28.4461C12.3463 28.0204 12.8013 27.7589 13.2929 27.7609L16.6364 27.7747Z" stroke="#446191" stroke-width="0.5"/>
<path d="M16.6364 27.7747L16.6375 27.7747L19.9811 27.7746C20.4726 27.7746 20.9266 28.038 21.1706 28.4647L22.8305 31.3672L22.831 31.368L24.5028 34.2637C24.7486 34.6894 24.7476 35.2142 24.5 35.6389L22.8164 38.5276L22.8159 38.5285L21.1441 41.4242C20.8983 41.8499 20.4433 42.1113 19.9517 42.1093L16.6081 42.0956L16.6071 42.0956L13.2635 42.0956C12.7719 42.0956 12.318 41.8323 12.074 41.4056L10.4141 38.5031L10.4135 38.5022L8.74174 35.6066C8.49595 35.1809 8.49702 34.6561 8.74455 34.2314L10.4282 31.3426L10.4282 31.3426L10.4287 31.3417L12.1005 28.4461C12.3463 28.0204 12.8013 27.7589 13.2929 27.7609L16.6364 27.7747Z" stroke="#446191" stroke-width="0.5"/>
<path d="M30.2849 35.9622L30.286 35.9622L33.6296 35.9621C34.1211 35.9621 34.5751 36.2255 34.8191 36.6522L36.479 39.5547L36.4795 39.5555L38.1513 42.4512C38.3971 42.8769 38.3961 43.4017 38.1485 43.8264L36.4649 46.7151L36.4644 46.716L34.7926 49.6117C34.5468 50.0374 34.0918 50.2988 33.6002 50.2968L30.2566 50.2831L30.2556 50.2831L26.912 50.2831C26.4204 50.2831 25.9665 50.0198 25.7225 49.5931L24.0626 46.6906L24.062 46.6897L22.3902 43.7941C22.1444 43.3684 22.1455 42.8436 22.3931 42.4189L24.0767 39.5301L24.0767 39.5301L24.0772 39.5292L25.749 36.6336C25.9948 36.2079 26.4498 35.9464 26.9414 35.9484L30.2849 35.9622Z" stroke="#446191" stroke-width="0.5"/>
</svg>
