<svg width="46" height="39" viewBox="0 0 46 39" fill="none" xmlns="http://www.w3.org/2000/svg">
<path d="M8.27005 1.87891C8.94225 0.728461 10.1866 0.0219295 11.531 0.027375L19.2642 0.0586986L26.9976 0.0586814C28.342 0.0586784 29.5834 0.770241 30.2508 1.9234L34.09 8.55672L37.9567 15.1744C38.6289 16.3249 38.6259 17.743 37.949 18.8907L34.0549 25.4927L30.1882 32.1104C29.516 33.2608 28.2717 33.9674 26.9273 33.9619L19.194 33.9306L11.4607 33.9306C10.1163 33.9306 8.87489 33.2191 8.20747 32.0659L4.36829 25.4326L0.501605 18.8149C-0.170595 17.6644 -0.167657 16.2463 0.509308 15.0986L4.4034 8.49663L8.27005 1.87891Z" fill="#F58025"/>
<path d="M19.4514 19.4343C18.7514 19.4343 18.0801 19.1562 17.5851 18.6612C17.0901 18.1663 16.8121 17.4949 16.8121 16.7949C16.8121 16.0949 17.0901 15.4236 17.5851 14.9286C18.0801 14.4337 18.7514 14.1556 19.4514 14.1556C20.1514 14.1556 20.8228 14.4337 21.3177 14.9286C21.8127 15.4236 22.0908 16.0949 22.0908 16.7949C22.0908 17.4949 21.8127 18.1663 21.3177 18.6612C20.8228 19.1562 20.1514 19.4343 19.4514 19.4343ZM25.0544 17.5264C25.0846 17.2851 25.1072 17.0438 25.1072 16.7949C25.1072 16.5461 25.0846 16.2972 25.0544 16.0408L26.6456 14.8116C26.7888 14.6985 26.8265 14.4949 26.736 14.329L25.2278 11.7198C25.1374 11.5539 24.9337 11.4861 24.7678 11.5539L22.8901 12.308C22.498 12.0139 22.0908 11.7575 21.6157 11.569L21.3367 9.57063C21.3214 9.48181 21.2751 9.40128 21.2061 9.34331C21.1371 9.28534 21.0498 9.25367 20.9596 9.25391H17.9432C17.7547 9.25391 17.5963 9.38965 17.5662 9.57063L17.2871 11.569C16.8121 11.7575 16.4048 12.0139 16.0127 12.308L14.135 11.5539C13.9691 11.4861 13.7655 11.5539 13.675 11.7198L12.1668 14.329C12.0688 14.4949 12.114 14.6985 12.2573 14.8116L13.8484 16.0408C13.8183 16.2972 13.7956 16.5461 13.7956 16.7949C13.7956 17.0438 13.8183 17.2851 13.8484 17.5264L12.2573 18.7782C12.114 18.8913 12.0688 19.0949 12.1668 19.2609L13.675 21.87C13.7655 22.0359 13.9691 22.0963 14.135 22.0359L16.0127 21.2743C16.4048 21.5759 16.8121 21.8323 17.2871 22.0209L17.5662 24.0192C17.5963 24.2002 17.7547 24.336 17.9432 24.336H20.9596C21.1481 24.336 21.3065 24.2002 21.3367 24.0192L21.6157 22.0209C22.0908 21.8248 22.498 21.5759 22.8901 21.2743L24.7678 22.0359C24.9337 22.0963 25.1374 22.0359 25.2278 21.87L26.736 19.2609C26.8265 19.0949 26.7888 18.8913 26.6456 18.7782L25.0544 17.5264Z" fill="#E0EBF6"/>
<path d="M45.0263 30.6337L35.1463 23.9346C35.5623 21.6727 34.6206 19.2971 32.5571 17.9156C30.8283 16.7293 28.706 16.5936 26.9051 17.3164C26.2471 17.5805 26.2631 18.4418 26.863 18.82L30.6301 21.1952C31.1054 21.495 31.2406 22.1274 30.9292 22.5952L29.8528 24.2123C29.5538 24.6615 28.9523 24.7924 28.4936 24.5082L24.4624 22.0103C23.8939 21.658 23.1466 21.9588 23.1287 22.6272C23.0748 24.6325 24.0831 26.619 25.8257 27.8436C26.7835 28.5071 27.913 28.8752 29.0753 28.9027C30.2375 28.9301 31.3818 28.6157 32.3673 27.9982L42.2434 34.677C42.68 34.9906 43.223 34.8851 43.5104 34.4308L45.1973 31.9427C45.569 31.493 45.4433 30.8463 45.0263 30.6337Z" fill="#446191"/>
</svg>
