<svg width="48" height="49" viewBox="0 0 48 49" fill="none" xmlns="http://www.w3.org/2000/svg">
<path d="M26.0617 8.31725C26.4166 7.70752 27.0735 7.33307 27.7833 7.33595L31.8663 7.35256L35.9492 7.35255C36.659 7.35254 37.3144 7.72967 37.6668 8.34083L39.6938 11.8564L41.7353 15.3638C42.0902 15.9735 42.0886 16.7251 41.7312 17.3333L39.6752 20.8323L37.6338 24.3397C37.2789 24.9494 36.6219 25.3238 35.9121 25.321L31.8292 25.3044L27.7462 25.3044C27.0364 25.3044 26.381 24.9273 26.0286 24.3161L24.0016 20.8005L21.9602 17.2932C21.6053 16.6834 21.6068 15.9319 21.9642 15.3236L24.0202 11.8246L26.0617 8.31725Z" fill="#F58025"/>
<path d="M8.18293 27.2667C8.36038 26.9578 8.68886 26.7681 9.04376 26.7695L11.0852 26.7779L13.1267 26.7779C13.4816 26.7779 13.8093 26.969 13.9855 27.2786L14.999 29.0596L16.0197 30.8365C16.1972 31.1454 16.1964 31.5261 16.0177 31.8343L14.9897 33.6069L13.969 35.3838C13.7915 35.6927 13.463 35.8824 13.1082 35.8809L11.0667 35.8725L9.02521 35.8725C8.67031 35.8725 8.3426 35.6814 8.16641 35.3718L7.15292 33.5908L6.13218 31.8139C5.95473 31.5051 5.9555 31.1243 6.13421 30.8161L7.16219 29.0435L8.18293 27.2667Z" fill="#F58025"/>
<path d="M29.2945 36.4132C29.4719 36.1043 29.8004 35.9146 30.1553 35.916L32.1968 35.9244L34.2383 35.9244C34.5932 35.9244 34.9209 36.1155 35.0971 36.4251L36.1106 38.2061L37.1313 39.983C37.3088 40.2919 37.308 40.6726 37.1293 40.9808L36.1013 42.7534L35.0806 44.5302C34.9031 44.8391 34.5746 45.0288 34.2197 45.0274L32.1783 45.019L30.1368 45.019C29.7819 45.019 29.4542 44.8279 29.278 44.5183L28.2645 42.7373L27.2438 40.9604C27.0663 40.6515 27.0671 40.2708 27.2458 39.9626L28.2738 38.19L29.2945 36.4132Z" fill="#F58025"/>
<path d="M8.31379 0.524486C8.49124 0.215592 8.81972 0.02589 9.17462 0.0273521L11.2161 0.0357625L13.2576 0.0357578C13.6125 0.035757 13.9402 0.22681 14.1164 0.536432L15.1298 2.31746L16.1506 4.0943C16.328 4.40319 16.3273 4.78395 16.1486 5.09211L15.1206 6.86473L14.0998 8.64157C13.9224 8.95046 13.5939 9.14017 13.239 9.1387L11.1975 9.13029L9.15607 9.1303C8.80117 9.1303 8.47346 8.93925 8.29727 8.62962L7.28378 6.84859L6.26304 5.07176C6.08559 4.76286 6.08636 4.38211 6.26507 4.07395L7.29305 2.30133L8.31379 0.524486Z" fill="#F58025"/>
<path d="M16.7571 27.5871C16.7571 27.6972 16.847 27.7863 16.9579 27.7863L18.7652 27.7863C18.8761 27.7863 18.966 27.6972 18.966 27.5871C18.966 27.4771 18.8761 27.388 18.7652 27.388L17.1587 27.388L17.1587 25.7945C17.1587 25.6845 17.0688 25.5953 16.9579 25.5953C16.847 25.5953 16.7571 25.6845 16.7571 25.7945L16.7571 27.5871ZM21.2019 23.0959C21.1235 23.1737 21.1235 23.2998 21.2019 23.3776C21.2803 23.4554 21.4075 23.4554 21.4859 23.3776L21.2019 23.0959ZM20.2328 24.6205C20.3112 24.5428 20.3112 24.4166 20.2328 24.3389C20.1543 24.2611 20.0272 24.2611 19.9488 24.3389L20.2328 24.6205ZM18.6956 25.5818C18.6172 25.6596 18.6172 25.7857 18.6956 25.8635C18.774 25.9413 18.9012 25.9413 18.9796 25.8635L18.6956 25.5818ZM17.7265 27.1065C17.8049 27.0287 17.8049 26.9026 17.7265 26.8248C17.6481 26.747 17.5209 26.747 17.4425 26.8248L17.7265 27.1065ZM21.8285 22.4744L21.2019 23.0959L21.4859 23.3776L22.1125 22.7561L21.8285 22.4744ZM19.9488 24.3389L18.6956 25.5818L18.9796 25.8635L20.2328 24.6205L19.9488 24.3389ZM17.4425 26.8248L16.8159 27.4463L17.0999 27.728L17.7265 27.1065L17.4425 26.8248ZM16.5563 27.5871C16.5563 27.8072 16.7361 27.9855 16.9579 27.9855L20.5725 27.9855C20.7943 27.9855 20.9742 27.8072 20.9742 27.5871C20.9742 27.3671 20.7943 27.1888 20.5725 27.1888L17.3595 27.1888L17.3595 24.0018C17.3595 23.7818 17.1797 23.6035 16.9579 23.6035C16.7361 23.6035 16.5563 23.7818 16.5563 24.0018L16.5563 27.5871ZM21.0599 22.955C20.9031 23.1106 20.9031 23.3628 21.0599 23.5184C21.2167 23.674 21.471 23.674 21.6279 23.5184L21.0599 22.955ZM20.3747 24.7614C20.5316 24.6058 20.5316 24.3536 20.3747 24.198C20.2179 24.0424 19.9636 24.0424 19.8068 24.198L20.3747 24.7614ZM18.5536 25.441C18.3968 25.5966 18.3968 25.8488 18.5536 26.0044C18.7105 26.1599 18.9648 26.1599 19.1216 26.0044L18.5536 25.441ZM17.8685 27.2473C18.0253 27.0918 18.0253 26.8395 17.8685 26.684C17.7116 26.5284 17.4573 26.5284 17.3005 26.684L17.8685 27.2473ZM21.6865 22.3335L21.0599 22.955L21.6279 23.5184L22.2545 22.8969L21.6865 22.3335ZM19.8068 24.198L18.5536 25.441L19.1216 26.0044L20.3747 24.7614L19.8068 24.198ZM17.3005 26.684L16.6739 27.3055L17.2419 27.8688L17.8685 27.2473L17.3005 26.684Z" fill="#446191"/>
<path d="M31.7081 34.1298C31.7862 34.2079 31.9128 34.2079 31.9909 34.1298L33.2637 32.857C33.3418 32.7789 33.3418 32.6523 33.2637 32.5742C33.1856 32.4961 33.059 32.4961 32.9809 32.5742L31.8495 33.7056L30.7181 32.5742C30.64 32.4961 30.5134 32.4961 30.4353 32.5742C30.3572 32.6523 30.3572 32.7789 30.4353 32.857L31.7081 34.1298ZM31.6495 27.836C31.6495 27.9464 31.739 28.036 31.8495 28.036C31.9599 28.036 32.0495 27.9464 32.0495 27.836H31.6495ZM32.0495 29.5938C32.0495 29.4833 31.9599 29.3938 31.8495 29.3938C31.739 29.3938 31.6495 29.4833 31.6495 29.5938H32.0495ZM31.6495 31.3516C31.6495 31.4621 31.739 31.5516 31.8495 31.5516C31.9599 31.5516 32.0495 31.4621 32.0495 31.3516H31.6495ZM32.0495 33.1095C32.0495 32.999 31.9599 32.9095 31.8495 32.9095C31.739 32.9095 31.6495 32.999 31.6495 33.1095H32.0495ZM31.6495 26.957V27.836H32.0495V26.957H31.6495ZM31.6495 29.5938V31.3516H32.0495V29.5938H31.6495ZM31.6495 33.1095V33.9884H32.0495V33.1095H31.6495ZM31.5666 34.2713C31.7229 34.4275 31.9761 34.4275 32.1323 34.2713L34.6779 31.7257C34.8341 31.5695 34.8341 31.3162 34.6779 31.16C34.5217 31.0038 34.2684 31.0038 34.1122 31.16L31.8495 33.4227L29.5867 31.16C29.4305 31.0038 29.1773 31.0038 29.0211 31.16C28.8649 31.3162 28.8649 31.5695 29.0211 31.7257L31.5666 34.2713ZM31.4495 27.836C31.4495 28.0569 31.6286 28.236 31.8495 28.236C32.0704 28.236 32.2495 28.0569 32.2495 27.836H31.4495ZM32.2495 29.5938C32.2495 29.3729 32.0704 29.1938 31.8495 29.1938C31.6286 29.1938 31.4495 29.3729 31.4495 29.5938H32.2495ZM31.4495 31.3516C31.4495 31.5726 31.6286 31.7516 31.8495 31.7516C32.0704 31.7516 32.2495 31.5726 32.2495 31.3516H31.4495ZM32.2495 33.1095C32.2495 32.8886 32.0704 32.7095 31.8495 32.7095C31.6286 32.7095 31.4495 32.8886 31.4495 33.1095H32.2495ZM31.4495 26.957V27.836H32.2495V26.957H31.4495ZM31.4495 29.5938V31.3516H32.2495V29.5938H31.4495ZM31.4495 33.1095V33.9884H32.2495V33.1095H31.4495Z" fill="#446191"/>
<path d="M17.5893 7.21891C17.4812 7.24371 17.4136 7.35076 17.4382 7.45802L17.8393 9.20601C17.8639 9.31327 17.9714 9.38013 18.0795 9.35534C18.1875 9.33055 18.2552 9.22349 18.2305 9.11623L17.874 7.56246L19.4392 7.20334C19.5473 7.17855 19.6149 7.07149 19.5903 6.96423C19.5657 6.85696 19.4581 6.79011 19.3501 6.8149L17.5893 7.21891ZM22.4786 10.1894C22.3848 10.1311 22.2609 10.1596 22.2019 10.2529C22.1429 10.3463 22.1711 10.4693 22.2649 10.5276L22.4786 10.1894ZM20.9112 9.68606C21.005 9.74438 21.1289 9.71596 21.1879 9.62258C21.2469 9.5292 21.2187 9.40623 21.1249 9.34791L20.9112 9.68606ZM19.7712 8.50637C19.6774 8.44805 19.5535 8.47647 19.4945 8.56985C19.4355 8.66323 19.4637 8.78621 19.5575 8.84452L19.7712 8.50637ZM18.2038 8.00298C18.2976 8.0613 18.4215 8.03288 18.4805 7.9395C18.5395 7.84612 18.5113 7.72314 18.4175 7.66483L18.2038 8.00298ZM23.1554 10.6102L22.4786 10.1894L22.2649 10.5276L22.9418 10.9484L23.1554 10.6102ZM21.1249 9.34791L19.7712 8.50637L19.5575 8.84452L20.9112 9.68606L21.1249 9.34791ZM18.4175 7.66483L17.7407 7.24406L17.527 7.58221L18.2038 8.00298L18.4175 7.66483ZM17.5447 7.02469C17.3286 7.07428 17.1933 7.28839 17.2425 7.50292L18.0447 10.9989C18.0939 11.2134 18.309 11.3471 18.5251 11.2975C18.7412 11.248 18.8765 11.0338 18.8273 10.8193L18.1142 7.71179L21.2446 6.99355C21.4607 6.94396 21.596 6.72985 21.5468 6.51532C21.4975 6.30079 21.2824 6.16708 21.0663 6.21666L17.5447 7.02469ZM22.5854 10.0204C22.3978 9.90374 22.15 9.96059 22.032 10.1473C21.914 10.3341 21.9705 10.58 22.1581 10.6967L22.5854 10.0204ZM20.8044 9.85514C20.992 9.97177 21.2398 9.91493 21.3578 9.72817C21.4758 9.54141 21.4193 9.29547 21.2317 9.17883L20.8044 9.85514ZM19.878 8.33729C19.6904 8.22066 19.4427 8.2775 19.3247 8.46426C19.2067 8.65102 19.2631 8.89697 19.4507 9.0136L19.878 8.33729ZM18.097 8.17206C18.2846 8.28869 18.5324 8.23185 18.6504 8.04509C18.7684 7.85833 18.712 7.61238 18.5243 7.49575L18.097 8.17206ZM23.2622 10.4411L22.5854 10.0204L22.1581 10.6967L22.8349 11.1175L23.2622 10.4411ZM21.2317 9.17883L19.878 8.33729L19.4507 9.0136L20.8044 9.85514L21.2317 9.17883ZM18.5243 7.49575L17.8475 7.07498L17.4202 7.75129L18.097 8.17206L18.5243 7.49575Z" fill="#446191"/>
</svg>
