<svg width="36" height="31" viewBox="0 0 36 31" fill="none" xmlns="http://www.w3.org/2000/svg">
<path fill-rule="evenodd" clip-rule="evenodd" d="M27.6914 2.82392V2.82422V24.9781H33.2299V2.82422V2.82392C33.2299 1.29451 31.99 0.0546875 30.4606 0.0546875C28.9312 0.0546875 27.6914 1.29451 27.6914 2.82392ZM19.3828 11.1309V11.1306C19.3828 9.60116 20.6226 8.36133 22.152 8.36133C23.6814 8.36133 24.9213 9.60116 24.9213 11.1306V11.1309V24.977H19.3828V11.1309ZM11.0781 16.6696V16.6699V24.9776H16.6166V16.6699V16.6696C16.6166 15.1402 15.3768 13.9004 13.8474 13.9004C12.318 13.9004 11.0781 15.1402 11.0781 16.6696ZM8.30799 19.4395V19.4392C8.30799 17.9097 7.06817 16.6699 5.53876 16.6699C4.00936 16.6699 2.76953 17.9097 2.76953 19.4392V19.4395V24.9779H8.30799V19.4395ZM36 27.7461H0V30.5153H36V27.7461Z" fill="#06335E"/>
</svg>
