<svg width="20" height="20" viewBox="0 0 20 20" fill="none" xmlns="http://www.w3.org/2000/svg">
<g id="linkedin icon">
<g id="Group">
<path id="Vector" fill-rule="evenodd" clip-rule="evenodd" d="M4.34068 2.18954C4.34068 3.32144 3.47883 4.23746 2.13105 4.23746C0.835777 4.23746 -0.0260702 3.32144 0.000602049 2.18954C-0.0260702 1.00263 0.835757 0.113281 2.15687 0.113281C3.47881 0.113281 4.31484 1.00263 4.34068 2.18954ZM0.108962 19.0397V5.85529H4.20648V19.0389H0.108962V19.0397Z" fill="#06335E"/>
</g>
<g id="Group_2">
<path id="Vector_2" fill-rule="evenodd" clip-rule="evenodd" d="M7.49075 10.0633C7.49075 8.41878 7.43656 7.01682 7.38239 5.85741H10.9415L11.1307 7.66363H11.2115C11.7508 6.82762 13.0986 5.56152 15.2824 5.56152C17.9779 5.56152 20 7.34106 20 11.2219V19.0418H15.9025V11.7353C15.9025 10.0358 15.3099 8.87721 13.8271 8.87721C12.6943 8.87721 12.0209 9.65904 11.7516 10.4134C11.6433 10.6834 11.5899 11.0602 11.5899 11.4386V19.0418H7.4924V10.0633H7.49075Z" fill="#06335E"/>
</g>
</g>
</svg>
