<svg width="150" height="48" viewBox="0 0 150 48" fill="none" xmlns="http://www.w3.org/2000/svg">
<path d="M7.00798 25.7502C7.35192 25.1566 7.98763 24.7908 8.67556 24.791H18.984C19.6719 24.7908 20.3076 25.1566 20.6516 25.7502L25.8058 34.6448C26.1499 35.2384 26.1499 35.9698 25.8058 36.5634L20.6516 45.458C20.3076 46.0516 19.6719 46.4174 18.984 46.4174H8.67556C7.98763 46.4174 7.35192 46.0516 7.00798 45.458L1.85377 36.5634C1.50976 35.9698 1.50976 35.2384 1.85377 34.6448L7.00798 25.7502Z" fill="white"/>
<path d="M7.00798 2.54129C7.35192 1.94767 7.98763 1.582 8.67556 1.58203L18.984 1.58203C19.6719 1.582 20.3076 1.94767 20.6516 2.54129L25.8058 11.436C26.1499 12.0295 26.1499 12.7609 25.8058 13.3545L20.6516 22.2491C20.3076 22.8428 19.6719 23.2084 18.984 23.2084L8.67556 23.2084C7.98763 23.2084 7.35192 22.8428 7.00798 22.2491L1.85377 13.3545C1.50976 12.7609 1.50976 12.0295 1.85377 11.436L7.00798 2.54129Z" fill="white"/>
<path d="M27.7526 14.1468C28.0966 13.5532 28.7322 13.1875 29.4203 13.1875H39.7287C40.4165 13.1875 41.0524 13.5532 41.3962 14.1468L46.5505 23.0415C46.8945 23.6351 46.8945 24.3664 46.5505 24.96L41.3962 33.8547C41.0524 34.4483 40.4165 34.8141 39.7287 34.8139H29.4203C28.7322 34.8141 28.0966 34.4483 27.7526 33.8547L22.5985 24.96C22.2545 24.3664 22.2545 23.6351 22.5985 23.0415L27.7526 14.1468Z" fill="#A2BDD8"/>
<path d="M65.7573 21.2744C66.3972 21.4173 66.9028 21.7336 67.2744 22.2235C67.6562 22.7032 67.8472 23.2543 67.8472 23.8769C67.8472 24.7955 67.5272 25.515 66.8873 26.0356C66.2477 26.5559 65.3497 26.8162 64.194 26.8162H58.7915V16.0234H64.0237C65.1381 16.0234 66.0103 16.2684 66.6398 16.7583C67.2795 17.2482 67.5994 17.9371 67.5994 18.825C67.5994 19.4577 67.4292 19.9885 67.0887 20.4171C66.7584 20.8355 66.3146 21.1213 65.7573 21.2744ZM61.8256 20.3099H63.358C64.1218 20.3099 64.5035 19.9986 64.5035 19.3761C64.5035 18.7331 64.1218 18.4116 63.358 18.4116H61.8256V20.3099ZM63.5903 24.3974C64.3538 24.3974 64.7356 24.0809 64.7356 23.4482C64.7356 23.1217 64.6325 22.8716 64.426 22.6981C64.2299 22.5246 63.9462 22.4379 63.5748 22.4379H61.8256V24.3974H63.5903ZM74.7031 26.8162L72.5359 22.8359H72.2108V26.8162H69.1767V16.0234H73.9601C74.8373 16.0234 75.5804 16.1765 76.1891 16.4827C76.7981 16.7787 77.2574 17.192 77.5669 17.7227C77.8765 18.2432 78.0313 18.8301 78.0313 19.4833C78.0313 20.2181 77.8248 20.8662 77.4122 21.4275C77.0096 21.9786 76.4163 22.3715 75.632 22.6063L78.0931 26.8162H74.7031ZM72.2108 20.7845H73.7123C74.1252 20.7845 74.4348 20.6876 74.6413 20.4936C74.8477 20.2997 74.9508 20.0191 74.9508 19.6516C74.9508 19.3047 74.8424 19.0342 74.6258 18.8403C74.4194 18.6362 74.1149 18.5341 73.7123 18.5341H72.2108V20.7845ZM86.315 25.0557H82.4452L81.8569 26.8162H78.6681L82.6463 16.0234H86.1448L90.1076 26.8162H86.9032L86.315 25.0557ZM85.5565 22.7593L84.3801 19.2689L83.2191 22.7593H85.5565ZM94.1305 16.0234V26.8162H91.0964V16.0234H94.1305ZM105.967 26.8162H102.933L98.8923 20.7845V26.8162H95.8585V16.0234H98.8923L102.933 22.1317V16.0234H105.967V26.8162Z" fill="white"/>
<path d="M107.324 21.3973C107.324 20.3359 107.545 19.3918 107.989 18.5652C108.443 17.7283 109.083 17.0802 109.909 16.6209C110.734 16.1514 111.684 15.9167 112.757 15.9167C114.119 15.9167 115.265 16.279 116.193 17.0036C117.122 17.7181 117.721 18.6927 117.989 19.9276H114.723C114.527 19.5194 114.253 19.2081 113.903 18.9938C113.562 18.7795 113.165 18.6723 112.71 18.6723C112.009 18.6723 111.446 18.9224 111.023 19.4224C110.61 19.9123 110.404 20.5706 110.404 21.3973C110.404 22.2342 110.61 22.9027 111.023 23.4028C111.446 23.8927 112.009 24.1375 112.71 24.1375C113.165 24.1375 113.562 24.0305 113.903 23.8161C114.253 23.6018 114.527 23.2905 114.723 22.8823H117.989C117.721 24.1172 117.122 25.097 116.193 25.8216C115.265 26.5361 114.119 26.8931 112.757 26.8931C111.684 26.8931 110.734 26.6636 109.909 26.2044C109.083 25.7349 108.443 25.0868 107.989 24.26C107.545 23.4232 107.324 22.4689 107.324 21.3973ZM124.658 26.9239C123.636 26.9239 122.697 26.6891 121.841 26.2196C120.984 25.7399 120.303 25.0817 119.797 24.2447C119.302 23.3977 119.054 22.4434 119.054 21.382C119.054 20.3206 119.302 19.3714 119.797 18.5345C120.303 17.6874 120.984 17.0292 121.841 16.5597C122.697 16.0902 123.636 15.8555 124.658 15.8555C125.69 15.8555 126.629 16.0902 127.475 16.5597C128.332 17.0292 129.008 17.6874 129.503 18.5345C129.999 19.3714 130.246 20.3206 130.246 21.382C130.246 22.4434 129.999 23.3977 129.503 24.2447C129.008 25.0817 128.332 25.7399 127.475 26.2196C126.619 26.6891 125.68 26.9239 124.658 26.9239ZM124.658 24.1375C125.432 24.1375 126.041 23.8875 126.485 23.3875C126.939 22.8874 127.166 22.2189 127.166 21.382C127.166 20.5247 126.939 19.8511 126.485 19.3612C126.041 18.8611 125.432 18.6111 124.658 18.6111C123.874 18.6111 123.26 18.8611 122.816 19.3612C122.372 19.8511 122.15 20.5247 122.15 21.382C122.15 22.2291 122.372 22.9027 122.816 23.4028C123.26 23.8927 123.874 24.1375 124.658 24.1375ZM135.929 16.0239C137.074 16.0239 138.076 16.2535 138.932 16.7128C139.799 17.1618 140.464 17.7946 140.929 18.6111C141.393 19.4276 141.625 20.3614 141.625 21.4126C141.625 22.4536 141.388 23.3823 140.914 24.1989C140.449 25.0154 139.784 25.6582 138.917 26.1277C138.06 26.5869 137.064 26.8167 135.929 26.8167H131.61V16.0239H135.929ZM135.697 24.1683C136.584 24.1683 137.281 23.9283 137.787 23.4487C138.292 22.969 138.545 22.2903 138.545 21.4126C138.545 20.5247 138.292 19.8409 137.787 19.3612C137.281 18.8713 136.584 18.6264 135.697 18.6264H134.644V24.1683H135.697ZM146.027 18.4274V20.1879H149.51V22.4689H146.027V24.4131H149.975V26.8167H142.993V16.0239H149.975V18.4274H146.027Z" fill="#A2BDD8"/>
<path d="M58.2144 35.4759C58.2144 35.0224 58.3177 34.6159 58.5244 34.2558C58.7314 33.8914 59.0122 33.607 59.3671 33.4026C59.7267 33.1979 60.1244 33.0957 60.5603 33.0957C61.0727 33.0957 61.5199 33.218 61.9019 33.4625C62.2839 33.707 62.5625 34.0536 62.7379 34.5025H62.0031C61.8727 34.2224 61.6838 34.007 61.4368 33.8558C61.1941 33.7047 60.9019 33.6292 60.5603 33.6292C60.2323 33.6292 59.938 33.7047 59.6772 33.8558C59.4166 34.007 59.2121 34.2224 59.0639 34.5025C58.9156 34.7781 58.8415 35.1024 58.8415 35.4759C58.8415 35.8448 58.9156 36.1691 59.0639 36.4493C59.2121 36.7248 59.4166 36.9381 59.6772 37.0893C59.938 37.2404 60.2323 37.3159 60.5603 37.3159C60.9019 37.3159 61.1941 37.2426 61.4368 37.0959C61.6838 36.9448 61.8727 36.7291 62.0031 36.4493H62.7379C62.5625 36.8937 62.2839 37.238 61.9019 37.4826C61.5199 37.7226 61.0727 37.8424 60.5603 37.8424C60.1244 37.8424 59.7267 37.7426 59.3671 37.5425C59.0122 37.3381 58.7314 37.0558 58.5244 36.6959C58.3177 36.3358 58.2144 35.9291 58.2144 35.4759ZM66.5302 37.8491C66.0943 37.8491 65.6966 37.7493 65.3371 37.5492C64.9775 37.3448 64.6921 37.0625 64.4808 36.7026C64.2741 36.338 64.1708 35.9291 64.1708 35.4759C64.1708 35.0224 64.2741 34.6159 64.4808 34.2558C64.6921 33.8914 64.9775 33.6091 65.3371 33.4093C65.6966 33.2046 66.0943 33.1024 66.5302 33.1024C66.9706 33.1024 67.3705 33.2046 67.7301 33.4093C68.0896 33.6091 68.3729 33.8893 68.5796 34.2491C68.7863 34.6093 68.8896 35.0181 68.8896 35.4759C68.8896 35.9337 68.7863 36.3425 68.5796 36.7026C68.3729 37.0625 68.0896 37.3448 67.7301 37.5492C67.3705 37.7493 66.9706 37.8491 66.5302 37.8491ZM66.5302 37.3226C66.8583 37.3226 67.1527 37.2469 67.4132 37.0959C67.6784 36.9448 67.8851 36.7291 68.0336 36.4493C68.1862 36.1691 68.2627 35.8448 68.2627 35.4759C68.2627 35.1024 68.1862 34.7781 68.0336 34.5025C67.8851 34.2224 67.6808 34.007 67.42 33.8558C67.1595 33.7047 66.8627 33.6292 66.5302 33.6292C66.1977 33.6292 65.9009 33.7047 65.6404 33.8558C65.3798 34.007 65.1729 34.2224 65.0203 34.5025C64.8717 34.7781 64.7976 35.1024 64.7976 35.4759C64.7976 35.8448 64.8717 36.1691 65.0203 36.4493C65.1729 36.7291 65.3798 36.9448 65.6404 37.0959C65.9055 37.2469 66.202 37.3226 66.5302 37.3226ZM75.2145 33.1891V37.8026H74.6012V34.3626L73.0507 37.8026H72.6191L71.0619 34.3559V37.8026H70.4486V33.1891H71.1092L72.8348 37.0026L74.5606 33.1891H75.2145ZM80.1454 34.5159C80.1454 34.9025 80.0104 35.2247 79.7409 35.4826C79.4758 35.7359 79.0689 35.8625 78.5207 35.8625H77.6174V37.8026H77.0038V33.1559H78.5207C79.051 33.1559 79.4533 33.2824 79.7274 33.5358C80.006 33.7892 80.1454 34.1159 80.1454 34.5159ZM78.5207 35.3624C78.8622 35.3624 79.1138 35.2891 79.2758 35.1425C79.4376 34.9959 79.5185 34.7869 79.5185 34.5159C79.5185 33.9425 79.1857 33.6557 78.5207 33.6557H77.6174V35.3624H78.5207ZM83.787 37.8491C83.3511 37.8491 82.9534 37.7493 82.5939 37.5492C82.2343 37.3448 81.9489 37.0625 81.7376 36.7026C81.5309 36.338 81.4276 35.9291 81.4276 35.4759C81.4276 35.0224 81.5309 34.6159 81.7376 34.2558C81.9489 33.8914 82.2343 33.6091 82.5939 33.4093C82.9534 33.2046 83.3511 33.1024 83.787 33.1024C84.2274 33.1024 84.6273 33.2046 84.9869 33.4093C85.3464 33.6091 85.6297 33.8893 85.8364 34.2491C86.0431 34.6093 86.1464 35.0181 86.1464 35.4759C86.1464 35.9337 86.0431 36.3425 85.8364 36.7026C85.6297 37.0625 85.3464 37.3448 84.9869 37.5492C84.6273 37.7493 84.2274 37.8491 83.787 37.8491ZM83.787 37.3226C84.1152 37.3226 84.4095 37.2469 84.6701 37.0959C84.9352 36.9448 85.1419 36.7291 85.2904 36.4493C85.443 36.1691 85.5196 35.8448 85.5196 35.4759C85.5196 35.1024 85.443 34.7781 85.2904 34.5025C85.1419 34.2224 84.9376 34.007 84.6768 33.8558C84.4163 33.7047 84.1195 33.6292 83.787 33.6292C83.4545 33.6292 83.1577 33.7047 82.8972 33.8558C82.6364 34.007 82.4297 34.2224 82.2771 34.5025C82.1286 34.7781 82.0544 35.1024 82.0544 35.4759C82.0544 35.8448 82.1286 36.1691 82.2771 36.4493C82.4297 36.7291 82.6364 36.9448 82.8972 37.0959C83.1623 37.2469 83.4588 37.3226 83.787 37.3226ZM89.195 37.8491C88.885 37.8491 88.6063 37.7959 88.3593 37.6891C88.1166 37.5781 87.9256 37.4269 87.7863 37.2359C87.6469 37.0403 87.575 36.8158 87.5704 36.5624H88.2243C88.2467 36.7802 88.3368 36.9648 88.494 37.1158C88.6558 37.2626 88.8896 37.3359 89.195 37.3359C89.4872 37.3359 89.7164 37.2648 89.8827 37.1224C90.0534 36.9758 90.1389 36.7893 90.1389 36.5624C90.1389 36.3848 90.0894 36.2403 89.9907 36.1293C89.8917 36.018 89.768 35.9337 89.6198 35.8759C89.4715 35.8181 89.2716 35.7558 89.0197 35.6891C88.7097 35.6091 88.4602 35.5291 88.2716 35.4491C88.0874 35.3691 87.9278 35.2447 87.793 35.0759C87.6626 34.9025 87.5974 34.6713 87.5974 34.3824C87.5974 34.1293 87.6626 33.9048 87.793 33.7092C87.9232 33.5136 88.1052 33.3624 88.339 33.2557C88.5771 33.1492 88.849 33.0957 89.1547 33.0957C89.5951 33.0957 89.9547 33.2046 90.2333 33.4224C90.5163 33.6402 90.676 33.9291 90.7119 34.2893H90.0378C90.0153 34.1113 89.9209 33.9559 89.7545 33.8224C89.5884 33.6846 89.3682 33.6158 89.0941 33.6158C88.8379 33.6158 88.6288 33.6824 88.467 33.8157C88.3052 33.9447 88.2243 34.1269 88.2243 34.3626C88.2243 34.5314 88.2716 34.6692 88.366 34.7759C88.4648 34.8824 88.5838 34.9648 88.7232 35.0224C88.8671 35.0759 89.067 35.138 89.3232 35.2091C89.6333 35.2937 89.8827 35.378 90.0716 35.4625C90.2602 35.5425 90.4219 35.6691 90.5569 35.8424C90.6917 36.0115 90.759 36.2424 90.759 36.5359C90.759 36.7626 90.6984 36.9758 90.577 37.1759C90.4557 37.3758 90.2758 37.5382 90.0378 37.6626C89.7997 37.787 89.5186 37.8491 89.195 37.8491ZM95.1881 36.7693H93.139L92.7613 37.8026H92.1142L93.8129 33.1824H94.5209L96.2129 37.8026H95.5658L95.1881 36.7693ZM95.0131 36.2759L94.1635 33.9291L93.314 36.2759H95.0131ZM100.055 35.4093C100.226 35.4358 100.381 35.5048 100.52 35.6158C100.664 35.7269 100.776 35.8647 100.857 36.0292C100.943 36.1937 100.985 36.3693 100.985 36.5558C100.985 36.7915 100.925 37.0047 100.803 37.1958C100.682 37.3825 100.504 37.5315 100.271 37.6426C100.041 37.7493 99.7696 37.8026 99.4549 37.8026H97.7023V33.1559H99.3876C99.7065 33.1559 99.9784 33.2091 100.203 33.3159C100.428 33.4181 100.596 33.558 100.709 33.7357C100.821 33.9136 100.877 34.1135 100.877 34.3358C100.877 34.6114 100.801 34.8402 100.648 35.0224C100.5 35.2003 100.302 35.3293 100.055 35.4093ZM98.3157 35.1626H99.3472C99.6348 35.1626 99.8572 35.0959 100.014 34.9624C100.172 34.8292 100.25 34.6448 100.25 34.4091C100.25 34.1737 100.172 33.9891 100.014 33.8558C99.8572 33.7226 99.6302 33.6557 99.3337 33.6557H98.3157V35.1626ZM99.4011 37.3025C99.7065 37.3025 99.9449 37.2313 100.116 37.0893C100.286 36.9469 100.372 36.7492 100.372 36.4958C100.372 36.2381 100.282 36.0359 100.102 35.8893C99.9224 35.7381 99.6819 35.6626 99.3808 35.6626H98.3157V37.3025H99.4011ZM103.199 37.3092H104.844V37.8026H102.586V33.1559H103.199V37.3092ZM106.858 33.6493V35.2024H108.57V35.7025H106.858V37.3025H108.772V37.8026H106.244V33.1492H108.772V33.6493H106.858ZM117.762 33.1891V37.8026H117.148V34.3626L115.598 37.8026H115.167L113.609 34.3559V37.8026H112.996V33.1891H113.656L115.382 37.0026L117.108 33.1891H117.762ZM121.681 37.8491C121.245 37.8491 120.848 37.7493 120.488 37.5492C120.129 37.3448 119.843 37.0625 119.632 36.7026C119.425 36.338 119.322 35.9291 119.322 35.4759C119.322 35.0224 119.425 34.6159 119.632 34.2558C119.843 33.8914 120.129 33.6091 120.488 33.4093C120.848 33.2046 121.245 33.1024 121.681 33.1024C122.122 33.1024 122.522 33.2046 122.881 33.4093C123.241 33.6091 123.524 33.8893 123.731 34.2491C123.938 34.6093 124.041 35.0181 124.041 35.4759C124.041 35.9337 123.938 36.3425 123.731 36.7026C123.524 37.0625 123.241 37.3448 122.881 37.5492C122.522 37.7493 122.122 37.8491 121.681 37.8491ZM121.681 37.3226C122.009 37.3226 122.304 37.2469 122.565 37.0959C122.83 36.9448 123.036 36.7291 123.185 36.4493C123.338 36.1691 123.414 35.8448 123.414 35.4759C123.414 35.1024 123.338 34.7781 123.185 34.5025C123.036 34.2224 122.832 34.007 122.571 33.8558C122.311 33.7047 122.014 33.6292 121.681 33.6292C121.349 33.6292 121.052 33.7047 120.792 33.8558C120.531 34.007 120.324 34.2224 120.171 34.5025C120.023 34.7781 119.949 35.1024 119.949 35.4759C119.949 35.8448 120.023 36.1691 120.171 36.4493C120.324 36.7291 120.531 36.9448 120.792 37.0959C121.057 37.2469 121.353 37.3226 121.681 37.3226ZM127.953 35.4093C128.123 35.4358 128.278 35.5048 128.418 35.6158C128.561 35.7269 128.674 35.8647 128.755 36.0292C128.84 36.1937 128.883 36.3693 128.883 36.5558C128.883 36.7915 128.822 37.0047 128.701 37.1958C128.579 37.3825 128.402 37.5315 128.168 37.6426C127.939 37.7493 127.667 37.8026 127.352 37.8026H125.6V33.1559H127.285C127.604 33.1559 127.876 33.2091 128.101 33.3159C128.325 33.4181 128.494 33.558 128.606 33.7357C128.719 33.9136 128.775 34.1135 128.775 34.3358C128.775 34.6114 128.698 34.8402 128.546 35.0224C128.397 35.2003 128.2 35.3293 127.953 35.4093ZM126.213 35.1626H127.245C127.532 35.1626 127.755 35.0959 127.912 34.9624C128.069 34.8292 128.148 34.6448 128.148 34.4091C128.148 34.1737 128.069 33.9891 127.912 33.8558C127.755 33.7226 127.528 33.6557 127.231 33.6557H126.213V35.1626ZM127.299 37.3025C127.604 37.3025 127.842 37.2313 128.013 37.0893C128.184 36.9469 128.269 36.7492 128.269 36.4958C128.269 36.2381 128.179 36.0359 128 35.8893C127.82 35.7381 127.579 35.6626 127.278 35.6626H126.213V37.3025H127.299ZM131.097 33.1559V37.8026H130.483V33.1559H131.097ZM133.504 37.3092H135.149V37.8026H132.891V33.1559H133.504V37.3092ZM137.163 33.6493V35.2024H138.876V35.7025H137.163V37.3025H139.078V37.8026H136.55V33.1492H139.078V33.6493H137.163Z" fill="white"/>
</svg>
